<mxfile host="app.diagrams.net" modified="2024-06-21T03:07:57.887Z" agent="Mozilla/5.0 (Windows NT 10.0; Win64; x64) AppleWebKit/537.36 (KHTML, like Gecko) Chrome/126.0.0.0 Safari/537.36" etag="iERkiI2vSifisfFm8XWm" version="24.5.5" type="device">
  <diagram name="第 1 页" id="33T3oQKg2jp4dK40noAK">
    <mxGraphModel dx="1434" dy="738" grid="1" gridSize="10" guides="1" tooltips="1" connect="1" arrows="1" fold="1" page="1" pageScale="1" pageWidth="1169" pageHeight="1654" math="0" shadow="0">
      <root>
        <mxCell id="0" />
        <mxCell id="1" parent="0" />
        <mxCell id="MjjTUTkJ0xS1mPN5Bs5z-239" value="" style="rounded=1;whiteSpace=wrap;html=1;fillColor=none;dashed=1;strokeWidth=2;" parent="1" vertex="1">
          <mxGeometry x="590" y="510" width="220" height="140" as="geometry" />
        </mxCell>
        <mxCell id="MjjTUTkJ0xS1mPN5Bs5z-240" value="" style="rounded=1;whiteSpace=wrap;html=1;fillColor=none;dashed=1;strokeWidth=2;" parent="1" vertex="1">
          <mxGeometry x="30" y="270" width="220" height="140" as="geometry" />
        </mxCell>
        <mxCell id="MjjTUTkJ0xS1mPN5Bs5z-1" value="" style="rounded=0;whiteSpace=wrap;html=1;" parent="1" vertex="1">
          <mxGeometry x="40" y="40" width="40" height="40" as="geometry" />
        </mxCell>
        <mxCell id="MjjTUTkJ0xS1mPN5Bs5z-26" style="edgeStyle=orthogonalEdgeStyle;rounded=0;orthogonalLoop=1;jettySize=auto;html=1;exitX=0;exitY=1;exitDx=0;exitDy=0;entryX=0;entryY=0;entryDx=0;entryDy=0;" parent="1" source="MjjTUTkJ0xS1mPN5Bs5z-2" target="MjjTUTkJ0xS1mPN5Bs5z-19" edge="1">
          <mxGeometry relative="1" as="geometry" />
        </mxCell>
        <mxCell id="MjjTUTkJ0xS1mPN5Bs5z-2" value="" style="rounded=0;whiteSpace=wrap;html=1;" parent="1" vertex="1">
          <mxGeometry x="80" y="40" width="40" height="40" as="geometry" />
        </mxCell>
        <mxCell id="MjjTUTkJ0xS1mPN5Bs5z-3" value="" style="rounded=0;whiteSpace=wrap;html=1;" parent="1" vertex="1">
          <mxGeometry x="160" y="40" width="40" height="40" as="geometry" />
        </mxCell>
        <mxCell id="MjjTUTkJ0xS1mPN5Bs5z-27" style="edgeStyle=orthogonalEdgeStyle;rounded=0;orthogonalLoop=1;jettySize=auto;html=1;exitX=0;exitY=1;exitDx=0;exitDy=0;entryX=0;entryY=0;entryDx=0;entryDy=0;" parent="1" source="MjjTUTkJ0xS1mPN5Bs5z-4" target="MjjTUTkJ0xS1mPN5Bs5z-21" edge="1">
          <mxGeometry relative="1" as="geometry" />
        </mxCell>
        <mxCell id="MjjTUTkJ0xS1mPN5Bs5z-4" value="" style="rounded=0;whiteSpace=wrap;html=1;" parent="1" vertex="1">
          <mxGeometry x="200" y="40" width="40" height="40" as="geometry" />
        </mxCell>
        <mxCell id="MjjTUTkJ0xS1mPN5Bs5z-34" style="edgeStyle=orthogonalEdgeStyle;rounded=0;orthogonalLoop=1;jettySize=auto;html=1;exitX=1;exitY=1;exitDx=0;exitDy=0;entryX=0;entryY=0;entryDx=0;entryDy=0;" parent="1" source="MjjTUTkJ0xS1mPN5Bs5z-5" target="MjjTUTkJ0xS1mPN5Bs5z-31" edge="1">
          <mxGeometry relative="1" as="geometry" />
        </mxCell>
        <mxCell id="MjjTUTkJ0xS1mPN5Bs5z-5" value="8" style="rounded=0;whiteSpace=wrap;html=1;fillColor=#cce5ff;strokeColor=#36393d;" parent="1" vertex="1">
          <mxGeometry x="320" y="40" width="40" height="40" as="geometry" />
        </mxCell>
        <mxCell id="MjjTUTkJ0xS1mPN5Bs5z-6" value="1" style="rounded=0;whiteSpace=wrap;html=1;fillColor=#cce5ff;strokeColor=#36393d;" parent="1" vertex="1">
          <mxGeometry x="360" y="40" width="40" height="40" as="geometry" />
        </mxCell>
        <mxCell id="MjjTUTkJ0xS1mPN5Bs5z-7" value="" style="rounded=0;whiteSpace=wrap;html=1;" parent="1" vertex="1">
          <mxGeometry x="440" y="40" width="40" height="40" as="geometry" />
        </mxCell>
        <mxCell id="MjjTUTkJ0xS1mPN5Bs5z-37" style="edgeStyle=orthogonalEdgeStyle;rounded=0;orthogonalLoop=1;jettySize=auto;html=1;exitX=0;exitY=1;exitDx=0;exitDy=0;entryX=0;entryY=0;entryDx=0;entryDy=0;" parent="1" source="MjjTUTkJ0xS1mPN5Bs5z-8" target="MjjTUTkJ0xS1mPN5Bs5z-33" edge="1">
          <mxGeometry relative="1" as="geometry" />
        </mxCell>
        <mxCell id="MjjTUTkJ0xS1mPN5Bs5z-8" value="" style="rounded=0;whiteSpace=wrap;html=1;" parent="1" vertex="1">
          <mxGeometry x="480" y="40" width="40" height="40" as="geometry" />
        </mxCell>
        <mxCell id="MjjTUTkJ0xS1mPN5Bs5z-18" value="" style="rounded=0;whiteSpace=wrap;html=1;" parent="1" vertex="1">
          <mxGeometry x="40" y="120" width="40" height="40" as="geometry" />
        </mxCell>
        <mxCell id="MjjTUTkJ0xS1mPN5Bs5z-36" style="edgeStyle=orthogonalEdgeStyle;rounded=0;orthogonalLoop=1;jettySize=auto;html=1;exitX=0;exitY=1;exitDx=0;exitDy=0;entryX=0;entryY=0.5;entryDx=0;entryDy=0;" parent="1" source="MjjTUTkJ0xS1mPN5Bs5z-19" target="MjjTUTkJ0xS1mPN5Bs5z-30" edge="1">
          <mxGeometry relative="1" as="geometry" />
        </mxCell>
        <mxCell id="MjjTUTkJ0xS1mPN5Bs5z-19" value="" style="rounded=0;whiteSpace=wrap;html=1;" parent="1" vertex="1">
          <mxGeometry x="80" y="120" width="40" height="40" as="geometry" />
        </mxCell>
        <mxCell id="MjjTUTkJ0xS1mPN5Bs5z-20" value="" style="rounded=0;whiteSpace=wrap;html=1;" parent="1" vertex="1">
          <mxGeometry x="160" y="120" width="40" height="40" as="geometry" />
        </mxCell>
        <mxCell id="MjjTUTkJ0xS1mPN5Bs5z-38" style="edgeStyle=orthogonalEdgeStyle;rounded=0;orthogonalLoop=1;jettySize=auto;html=1;" parent="1" source="MjjTUTkJ0xS1mPN5Bs5z-21" edge="1">
          <mxGeometry relative="1" as="geometry">
            <mxPoint x="480" y="140" as="targetPoint" />
          </mxGeometry>
        </mxCell>
        <mxCell id="MjjTUTkJ0xS1mPN5Bs5z-21" value="" style="rounded=0;whiteSpace=wrap;html=1;" parent="1" vertex="1">
          <mxGeometry x="200" y="120" width="40" height="40" as="geometry" />
        </mxCell>
        <mxCell id="MjjTUTkJ0xS1mPN5Bs5z-30" value="8" style="rounded=0;whiteSpace=wrap;html=1;fillColor=#cce5ff;strokeColor=#36393d;" parent="1" vertex="1">
          <mxGeometry x="320" y="200" width="40" height="40" as="geometry" />
        </mxCell>
        <mxCell id="MjjTUTkJ0xS1mPN5Bs5z-31" value="1" style="rounded=0;whiteSpace=wrap;html=1;fillColor=#cce5ff;strokeColor=#36393d;" parent="1" vertex="1">
          <mxGeometry x="360" y="200" width="40" height="40" as="geometry" />
        </mxCell>
        <mxCell id="MjjTUTkJ0xS1mPN5Bs5z-32" value="" style="rounded=0;whiteSpace=wrap;html=1;" parent="1" vertex="1">
          <mxGeometry x="440" y="200" width="40" height="40" as="geometry" />
        </mxCell>
        <mxCell id="MjjTUTkJ0xS1mPN5Bs5z-33" value="" style="rounded=0;whiteSpace=wrap;html=1;" parent="1" vertex="1">
          <mxGeometry x="480" y="200" width="40" height="40" as="geometry" />
        </mxCell>
        <mxCell id="MjjTUTkJ0xS1mPN5Bs5z-39" value="" style="rounded=0;whiteSpace=wrap;html=1;" parent="1" vertex="1">
          <mxGeometry x="600" y="40" width="40" height="40" as="geometry" />
        </mxCell>
        <mxCell id="MjjTUTkJ0xS1mPN5Bs5z-40" style="edgeStyle=orthogonalEdgeStyle;rounded=0;orthogonalLoop=1;jettySize=auto;html=1;exitX=0;exitY=1;exitDx=0;exitDy=0;entryX=0;entryY=0;entryDx=0;entryDy=0;" parent="1" source="MjjTUTkJ0xS1mPN5Bs5z-41" target="MjjTUTkJ0xS1mPN5Bs5z-53" edge="1">
          <mxGeometry relative="1" as="geometry" />
        </mxCell>
        <mxCell id="MjjTUTkJ0xS1mPN5Bs5z-41" value="" style="rounded=0;whiteSpace=wrap;html=1;" parent="1" vertex="1">
          <mxGeometry x="640" y="40" width="40" height="40" as="geometry" />
        </mxCell>
        <mxCell id="MjjTUTkJ0xS1mPN5Bs5z-42" value="" style="rounded=0;whiteSpace=wrap;html=1;" parent="1" vertex="1">
          <mxGeometry x="720" y="40" width="40" height="40" as="geometry" />
        </mxCell>
        <mxCell id="MjjTUTkJ0xS1mPN5Bs5z-43" style="edgeStyle=orthogonalEdgeStyle;rounded=0;orthogonalLoop=1;jettySize=auto;html=1;exitX=0;exitY=1;exitDx=0;exitDy=0;entryX=0;entryY=0;entryDx=0;entryDy=0;" parent="1" source="MjjTUTkJ0xS1mPN5Bs5z-44" target="MjjTUTkJ0xS1mPN5Bs5z-56" edge="1">
          <mxGeometry relative="1" as="geometry" />
        </mxCell>
        <mxCell id="MjjTUTkJ0xS1mPN5Bs5z-44" value="" style="rounded=0;whiteSpace=wrap;html=1;" parent="1" vertex="1">
          <mxGeometry x="760" y="40" width="40" height="40" as="geometry" />
        </mxCell>
        <mxCell id="MjjTUTkJ0xS1mPN5Bs5z-45" style="edgeStyle=orthogonalEdgeStyle;rounded=0;orthogonalLoop=1;jettySize=auto;html=1;exitX=1;exitY=1;exitDx=0;exitDy=0;entryX=0;entryY=0;entryDx=0;entryDy=0;" parent="1" source="MjjTUTkJ0xS1mPN5Bs5z-46" target="MjjTUTkJ0xS1mPN5Bs5z-58" edge="1">
          <mxGeometry relative="1" as="geometry" />
        </mxCell>
        <mxCell id="MjjTUTkJ0xS1mPN5Bs5z-46" value="" style="rounded=0;whiteSpace=wrap;html=1;" parent="1" vertex="1">
          <mxGeometry x="880" y="40" width="40" height="40" as="geometry" />
        </mxCell>
        <mxCell id="MjjTUTkJ0xS1mPN5Bs5z-47" value="" style="rounded=0;whiteSpace=wrap;html=1;" parent="1" vertex="1">
          <mxGeometry x="920" y="40" width="40" height="40" as="geometry" />
        </mxCell>
        <mxCell id="MjjTUTkJ0xS1mPN5Bs5z-48" value="4" style="rounded=0;whiteSpace=wrap;html=1;fillColor=#cce5ff;strokeColor=#36393d;" parent="1" vertex="1">
          <mxGeometry x="1000" y="40" width="40" height="40" as="geometry" />
        </mxCell>
        <mxCell id="MjjTUTkJ0xS1mPN5Bs5z-49" style="edgeStyle=orthogonalEdgeStyle;rounded=0;orthogonalLoop=1;jettySize=auto;html=1;exitX=0;exitY=1;exitDx=0;exitDy=0;entryX=0;entryY=0;entryDx=0;entryDy=0;" parent="1" source="MjjTUTkJ0xS1mPN5Bs5z-50" target="MjjTUTkJ0xS1mPN5Bs5z-60" edge="1">
          <mxGeometry relative="1" as="geometry" />
        </mxCell>
        <mxCell id="MjjTUTkJ0xS1mPN5Bs5z-50" value="2" style="rounded=0;whiteSpace=wrap;html=1;fillColor=#cce5ff;strokeColor=#36393d;" parent="1" vertex="1">
          <mxGeometry x="1040" y="40" width="40" height="40" as="geometry" />
        </mxCell>
        <mxCell id="MjjTUTkJ0xS1mPN5Bs5z-51" value="" style="rounded=0;whiteSpace=wrap;html=1;" parent="1" vertex="1">
          <mxGeometry x="600" y="120" width="40" height="40" as="geometry" />
        </mxCell>
        <mxCell id="MjjTUTkJ0xS1mPN5Bs5z-52" style="edgeStyle=orthogonalEdgeStyle;rounded=0;orthogonalLoop=1;jettySize=auto;html=1;exitX=0;exitY=1;exitDx=0;exitDy=0;entryX=0;entryY=0.5;entryDx=0;entryDy=0;" parent="1" source="MjjTUTkJ0xS1mPN5Bs5z-53" target="MjjTUTkJ0xS1mPN5Bs5z-57" edge="1">
          <mxGeometry relative="1" as="geometry" />
        </mxCell>
        <mxCell id="MjjTUTkJ0xS1mPN5Bs5z-53" value="" style="rounded=0;whiteSpace=wrap;html=1;" parent="1" vertex="1">
          <mxGeometry x="640" y="120" width="40" height="40" as="geometry" />
        </mxCell>
        <mxCell id="MjjTUTkJ0xS1mPN5Bs5z-54" value="" style="rounded=0;whiteSpace=wrap;html=1;" parent="1" vertex="1">
          <mxGeometry x="720" y="120" width="40" height="40" as="geometry" />
        </mxCell>
        <mxCell id="MjjTUTkJ0xS1mPN5Bs5z-55" style="edgeStyle=orthogonalEdgeStyle;rounded=0;orthogonalLoop=1;jettySize=auto;html=1;" parent="1" source="MjjTUTkJ0xS1mPN5Bs5z-56" edge="1">
          <mxGeometry relative="1" as="geometry">
            <mxPoint x="1040" y="140" as="targetPoint" />
          </mxGeometry>
        </mxCell>
        <mxCell id="MjjTUTkJ0xS1mPN5Bs5z-56" value="" style="rounded=0;whiteSpace=wrap;html=1;" parent="1" vertex="1">
          <mxGeometry x="760" y="120" width="40" height="40" as="geometry" />
        </mxCell>
        <mxCell id="MjjTUTkJ0xS1mPN5Bs5z-57" value="" style="rounded=0;whiteSpace=wrap;html=1;" parent="1" vertex="1">
          <mxGeometry x="880" y="200" width="40" height="40" as="geometry" />
        </mxCell>
        <mxCell id="MjjTUTkJ0xS1mPN5Bs5z-58" value="" style="rounded=0;whiteSpace=wrap;html=1;" parent="1" vertex="1">
          <mxGeometry x="920" y="200" width="40" height="40" as="geometry" />
        </mxCell>
        <mxCell id="MjjTUTkJ0xS1mPN5Bs5z-59" value="4" style="rounded=0;whiteSpace=wrap;html=1;fillColor=#cce5ff;strokeColor=#36393d;" parent="1" vertex="1">
          <mxGeometry x="1000" y="200" width="40" height="40" as="geometry" />
        </mxCell>
        <mxCell id="MjjTUTkJ0xS1mPN5Bs5z-60" value="2" style="rounded=0;whiteSpace=wrap;html=1;fillColor=#cce5ff;strokeColor=#36393d;" parent="1" vertex="1">
          <mxGeometry x="1040" y="200" width="40" height="40" as="geometry" />
        </mxCell>
        <mxCell id="MjjTUTkJ0xS1mPN5Bs5z-61" value="8" style="rounded=0;whiteSpace=wrap;html=1;fillColor=#cce5ff;strokeColor=#36393d;" parent="1" vertex="1">
          <mxGeometry x="40" y="280" width="40" height="40" as="geometry" />
        </mxCell>
        <mxCell id="MjjTUTkJ0xS1mPN5Bs5z-62" value="1" style="rounded=0;whiteSpace=wrap;html=1;fillColor=#cce5ff;strokeColor=#36393d;" parent="1" vertex="1">
          <mxGeometry x="80" y="280" width="40" height="40" as="geometry" />
        </mxCell>
        <mxCell id="MjjTUTkJ0xS1mPN5Bs5z-63" value="4" style="rounded=0;whiteSpace=wrap;html=1;fillColor=#cce5ff;strokeColor=#36393d;" parent="1" vertex="1">
          <mxGeometry x="160" y="280" width="40" height="40" as="geometry" />
        </mxCell>
        <mxCell id="MjjTUTkJ0xS1mPN5Bs5z-64" value="2" style="rounded=0;whiteSpace=wrap;html=1;fillColor=#cce5ff;strokeColor=#36393d;" parent="1" vertex="1">
          <mxGeometry x="200" y="280" width="40" height="40" as="geometry" />
        </mxCell>
        <mxCell id="MjjTUTkJ0xS1mPN5Bs5z-65" value="" style="rounded=0;whiteSpace=wrap;html=1;" parent="1" vertex="1">
          <mxGeometry x="320" y="280" width="40" height="40" as="geometry" />
        </mxCell>
        <mxCell id="MjjTUTkJ0xS1mPN5Bs5z-66" value="" style="rounded=0;whiteSpace=wrap;html=1;" parent="1" vertex="1">
          <mxGeometry x="360" y="280" width="40" height="40" as="geometry" />
        </mxCell>
        <mxCell id="MjjTUTkJ0xS1mPN5Bs5z-67" value="" style="rounded=0;whiteSpace=wrap;html=1;" parent="1" vertex="1">
          <mxGeometry x="440" y="280" width="40" height="40" as="geometry" />
        </mxCell>
        <mxCell id="MjjTUTkJ0xS1mPN5Bs5z-68" value="" style="rounded=0;whiteSpace=wrap;html=1;" parent="1" vertex="1">
          <mxGeometry x="480" y="280" width="40" height="40" as="geometry" />
        </mxCell>
        <mxCell id="MjjTUTkJ0xS1mPN5Bs5z-69" value="" style="rounded=0;whiteSpace=wrap;html=1;" parent="1" vertex="1">
          <mxGeometry x="600" y="280" width="40" height="40" as="geometry" />
        </mxCell>
        <mxCell id="MjjTUTkJ0xS1mPN5Bs5z-70" value="" style="rounded=0;whiteSpace=wrap;html=1;" parent="1" vertex="1">
          <mxGeometry x="640" y="280" width="40" height="40" as="geometry" />
        </mxCell>
        <mxCell id="MjjTUTkJ0xS1mPN5Bs5z-71" value="" style="rounded=0;whiteSpace=wrap;html=1;" parent="1" vertex="1">
          <mxGeometry x="720" y="280" width="40" height="40" as="geometry" />
        </mxCell>
        <mxCell id="MjjTUTkJ0xS1mPN5Bs5z-72" value="" style="rounded=0;whiteSpace=wrap;html=1;" parent="1" vertex="1">
          <mxGeometry x="760" y="280" width="40" height="40" as="geometry" />
        </mxCell>
        <mxCell id="MjjTUTkJ0xS1mPN5Bs5z-73" value="" style="rounded=0;whiteSpace=wrap;html=1;" parent="1" vertex="1">
          <mxGeometry x="880" y="280" width="40" height="40" as="geometry" />
        </mxCell>
        <mxCell id="MjjTUTkJ0xS1mPN5Bs5z-74" value="" style="rounded=0;whiteSpace=wrap;html=1;" parent="1" vertex="1">
          <mxGeometry x="920" y="280" width="40" height="40" as="geometry" />
        </mxCell>
        <mxCell id="MjjTUTkJ0xS1mPN5Bs5z-75" value="" style="rounded=0;whiteSpace=wrap;html=1;" parent="1" vertex="1">
          <mxGeometry x="1000" y="280" width="40" height="40" as="geometry" />
        </mxCell>
        <mxCell id="MjjTUTkJ0xS1mPN5Bs5z-76" value="" style="rounded=0;whiteSpace=wrap;html=1;" parent="1" vertex="1">
          <mxGeometry x="1040" y="280" width="40" height="40" as="geometry" />
        </mxCell>
        <mxCell id="MjjTUTkJ0xS1mPN5Bs5z-78" style="edgeStyle=orthogonalEdgeStyle;rounded=0;orthogonalLoop=1;jettySize=auto;html=1;exitX=0;exitY=1;exitDx=0;exitDy=0;entryX=0;entryY=0;entryDx=0;entryDy=0;" parent="1" target="MjjTUTkJ0xS1mPN5Bs5z-84" edge="1">
          <mxGeometry relative="1" as="geometry">
            <mxPoint x="80" y="320" as="sourcePoint" />
          </mxGeometry>
        </mxCell>
        <mxCell id="MjjTUTkJ0xS1mPN5Bs5z-79" style="edgeStyle=orthogonalEdgeStyle;rounded=0;orthogonalLoop=1;jettySize=auto;html=1;exitX=0;exitY=1;exitDx=0;exitDy=0;entryX=0;entryY=0;entryDx=0;entryDy=0;" parent="1" target="MjjTUTkJ0xS1mPN5Bs5z-87" edge="1">
          <mxGeometry relative="1" as="geometry">
            <mxPoint x="200" y="320" as="sourcePoint" />
          </mxGeometry>
        </mxCell>
        <mxCell id="MjjTUTkJ0xS1mPN5Bs5z-80" style="edgeStyle=orthogonalEdgeStyle;rounded=0;orthogonalLoop=1;jettySize=auto;html=1;exitX=1;exitY=1;exitDx=0;exitDy=0;entryX=0;entryY=0;entryDx=0;entryDy=0;" parent="1" target="MjjTUTkJ0xS1mPN5Bs5z-89" edge="1">
          <mxGeometry relative="1" as="geometry">
            <mxPoint x="360" y="320" as="sourcePoint" />
          </mxGeometry>
        </mxCell>
        <mxCell id="MjjTUTkJ0xS1mPN5Bs5z-81" style="edgeStyle=orthogonalEdgeStyle;rounded=0;orthogonalLoop=1;jettySize=auto;html=1;exitX=0;exitY=1;exitDx=0;exitDy=0;entryX=0;entryY=0;entryDx=0;entryDy=0;" parent="1" target="MjjTUTkJ0xS1mPN5Bs5z-91" edge="1">
          <mxGeometry relative="1" as="geometry">
            <mxPoint x="480" y="320" as="sourcePoint" />
          </mxGeometry>
        </mxCell>
        <mxCell id="MjjTUTkJ0xS1mPN5Bs5z-82" value="" style="rounded=0;whiteSpace=wrap;html=1;" parent="1" vertex="1">
          <mxGeometry x="40" y="360" width="40" height="40" as="geometry" />
        </mxCell>
        <mxCell id="MjjTUTkJ0xS1mPN5Bs5z-83" style="edgeStyle=orthogonalEdgeStyle;rounded=0;orthogonalLoop=1;jettySize=auto;html=1;exitX=0;exitY=1;exitDx=0;exitDy=0;entryX=0;entryY=0.5;entryDx=0;entryDy=0;" parent="1" source="MjjTUTkJ0xS1mPN5Bs5z-84" target="MjjTUTkJ0xS1mPN5Bs5z-88" edge="1">
          <mxGeometry relative="1" as="geometry" />
        </mxCell>
        <mxCell id="MjjTUTkJ0xS1mPN5Bs5z-84" value="" style="rounded=0;whiteSpace=wrap;html=1;" parent="1" vertex="1">
          <mxGeometry x="80" y="360" width="40" height="40" as="geometry" />
        </mxCell>
        <mxCell id="MjjTUTkJ0xS1mPN5Bs5z-85" value="" style="rounded=0;whiteSpace=wrap;html=1;" parent="1" vertex="1">
          <mxGeometry x="160" y="360" width="40" height="40" as="geometry" />
        </mxCell>
        <mxCell id="MjjTUTkJ0xS1mPN5Bs5z-86" style="edgeStyle=orthogonalEdgeStyle;rounded=0;orthogonalLoop=1;jettySize=auto;html=1;" parent="1" source="MjjTUTkJ0xS1mPN5Bs5z-87" edge="1">
          <mxGeometry relative="1" as="geometry">
            <mxPoint x="480" y="380" as="targetPoint" />
          </mxGeometry>
        </mxCell>
        <mxCell id="MjjTUTkJ0xS1mPN5Bs5z-87" value="5" style="rounded=0;whiteSpace=wrap;html=1;fillColor=#cce5ff;strokeColor=#36393d;" parent="1" vertex="1">
          <mxGeometry x="200" y="360" width="40" height="40" as="geometry" />
        </mxCell>
        <mxCell id="MjjTUTkJ0xS1mPN5Bs5z-88" value="" style="rounded=0;whiteSpace=wrap;html=1;" parent="1" vertex="1">
          <mxGeometry x="320" y="440" width="40" height="40" as="geometry" />
        </mxCell>
        <mxCell id="MjjTUTkJ0xS1mPN5Bs5z-89" value="" style="rounded=0;whiteSpace=wrap;html=1;" parent="1" vertex="1">
          <mxGeometry x="360" y="440" width="40" height="40" as="geometry" />
        </mxCell>
        <mxCell id="MjjTUTkJ0xS1mPN5Bs5z-90" value="" style="rounded=0;whiteSpace=wrap;html=1;" parent="1" vertex="1">
          <mxGeometry x="440" y="440" width="40" height="40" as="geometry" />
        </mxCell>
        <mxCell id="MjjTUTkJ0xS1mPN5Bs5z-91" value="5" style="rounded=0;whiteSpace=wrap;html=1;fillColor=#cce5ff;strokeColor=#36393d;" parent="1" vertex="1">
          <mxGeometry x="480" y="440" width="40" height="40" as="geometry" />
        </mxCell>
        <mxCell id="MjjTUTkJ0xS1mPN5Bs5z-92" style="edgeStyle=orthogonalEdgeStyle;rounded=0;orthogonalLoop=1;jettySize=auto;html=1;exitX=0;exitY=1;exitDx=0;exitDy=0;entryX=0;entryY=0;entryDx=0;entryDy=0;" parent="1" target="MjjTUTkJ0xS1mPN5Bs5z-98" edge="1">
          <mxGeometry relative="1" as="geometry">
            <mxPoint x="640" y="320" as="sourcePoint" />
          </mxGeometry>
        </mxCell>
        <mxCell id="MjjTUTkJ0xS1mPN5Bs5z-93" style="edgeStyle=orthogonalEdgeStyle;rounded=0;orthogonalLoop=1;jettySize=auto;html=1;exitX=0;exitY=1;exitDx=0;exitDy=0;entryX=0;entryY=0;entryDx=0;entryDy=0;" parent="1" target="MjjTUTkJ0xS1mPN5Bs5z-101" edge="1">
          <mxGeometry relative="1" as="geometry">
            <mxPoint x="760" y="320" as="sourcePoint" />
          </mxGeometry>
        </mxCell>
        <mxCell id="MjjTUTkJ0xS1mPN5Bs5z-94" style="edgeStyle=orthogonalEdgeStyle;rounded=0;orthogonalLoop=1;jettySize=auto;html=1;exitX=1;exitY=1;exitDx=0;exitDy=0;entryX=0;entryY=0;entryDx=0;entryDy=0;" parent="1" target="MjjTUTkJ0xS1mPN5Bs5z-103" edge="1">
          <mxGeometry relative="1" as="geometry">
            <mxPoint x="920" y="320" as="sourcePoint" />
          </mxGeometry>
        </mxCell>
        <mxCell id="MjjTUTkJ0xS1mPN5Bs5z-95" style="edgeStyle=orthogonalEdgeStyle;rounded=0;orthogonalLoop=1;jettySize=auto;html=1;exitX=0;exitY=1;exitDx=0;exitDy=0;entryX=0;entryY=0;entryDx=0;entryDy=0;" parent="1" target="MjjTUTkJ0xS1mPN5Bs5z-105" edge="1">
          <mxGeometry relative="1" as="geometry">
            <mxPoint x="1040" y="320" as="sourcePoint" />
          </mxGeometry>
        </mxCell>
        <mxCell id="MjjTUTkJ0xS1mPN5Bs5z-96" value="" style="rounded=0;whiteSpace=wrap;html=1;" parent="1" vertex="1">
          <mxGeometry x="600" y="360" width="40" height="40" as="geometry" />
        </mxCell>
        <mxCell id="MjjTUTkJ0xS1mPN5Bs5z-97" style="edgeStyle=orthogonalEdgeStyle;rounded=0;orthogonalLoop=1;jettySize=auto;html=1;exitX=0;exitY=1;exitDx=0;exitDy=0;entryX=0;entryY=0.5;entryDx=0;entryDy=0;" parent="1" source="MjjTUTkJ0xS1mPN5Bs5z-98" target="MjjTUTkJ0xS1mPN5Bs5z-102" edge="1">
          <mxGeometry relative="1" as="geometry" />
        </mxCell>
        <mxCell id="MjjTUTkJ0xS1mPN5Bs5z-98" value="" style="rounded=0;whiteSpace=wrap;html=1;" parent="1" vertex="1">
          <mxGeometry x="640" y="360" width="40" height="40" as="geometry" />
        </mxCell>
        <mxCell id="MjjTUTkJ0xS1mPN5Bs5z-99" value="" style="rounded=0;whiteSpace=wrap;html=1;" parent="1" vertex="1">
          <mxGeometry x="720" y="360" width="40" height="40" as="geometry" />
        </mxCell>
        <mxCell id="MjjTUTkJ0xS1mPN5Bs5z-100" style="edgeStyle=orthogonalEdgeStyle;rounded=0;orthogonalLoop=1;jettySize=auto;html=1;" parent="1" source="MjjTUTkJ0xS1mPN5Bs5z-101" edge="1">
          <mxGeometry relative="1" as="geometry">
            <mxPoint x="1040" y="380" as="targetPoint" />
          </mxGeometry>
        </mxCell>
        <mxCell id="MjjTUTkJ0xS1mPN5Bs5z-101" value="" style="rounded=0;whiteSpace=wrap;html=1;" parent="1" vertex="1">
          <mxGeometry x="760" y="360" width="40" height="40" as="geometry" />
        </mxCell>
        <mxCell id="MjjTUTkJ0xS1mPN5Bs5z-102" value="" style="rounded=0;whiteSpace=wrap;html=1;" parent="1" vertex="1">
          <mxGeometry x="880" y="440" width="40" height="40" as="geometry" />
        </mxCell>
        <mxCell id="MjjTUTkJ0xS1mPN5Bs5z-103" value="" style="rounded=0;whiteSpace=wrap;html=1;" parent="1" vertex="1">
          <mxGeometry x="920" y="440" width="40" height="40" as="geometry" />
        </mxCell>
        <mxCell id="MjjTUTkJ0xS1mPN5Bs5z-104" value="" style="rounded=0;whiteSpace=wrap;html=1;" parent="1" vertex="1">
          <mxGeometry x="1000" y="440" width="40" height="40" as="geometry" />
        </mxCell>
        <mxCell id="MjjTUTkJ0xS1mPN5Bs5z-105" value="" style="rounded=0;whiteSpace=wrap;html=1;" parent="1" vertex="1">
          <mxGeometry x="1040" y="440" width="40" height="40" as="geometry" />
        </mxCell>
        <mxCell id="MjjTUTkJ0xS1mPN5Bs5z-106" value="" style="rounded=0;whiteSpace=wrap;html=1;" parent="1" vertex="1">
          <mxGeometry x="40" y="520" width="40" height="40" as="geometry" />
        </mxCell>
        <mxCell id="MjjTUTkJ0xS1mPN5Bs5z-107" value="" style="rounded=0;whiteSpace=wrap;html=1;" parent="1" vertex="1">
          <mxGeometry x="80" y="520" width="40" height="40" as="geometry" />
        </mxCell>
        <mxCell id="MjjTUTkJ0xS1mPN5Bs5z-108" value="" style="rounded=0;whiteSpace=wrap;html=1;" parent="1" vertex="1">
          <mxGeometry x="160" y="520" width="40" height="40" as="geometry" />
        </mxCell>
        <mxCell id="MjjTUTkJ0xS1mPN5Bs5z-109" value="" style="rounded=0;whiteSpace=wrap;html=1;" parent="1" vertex="1">
          <mxGeometry x="200" y="520" width="40" height="40" as="geometry" />
        </mxCell>
        <mxCell id="MjjTUTkJ0xS1mPN5Bs5z-110" value="" style="rounded=0;whiteSpace=wrap;html=1;" parent="1" vertex="1">
          <mxGeometry x="320" y="520" width="40" height="40" as="geometry" />
        </mxCell>
        <mxCell id="MjjTUTkJ0xS1mPN5Bs5z-111" value="" style="rounded=0;whiteSpace=wrap;html=1;" parent="1" vertex="1">
          <mxGeometry x="360" y="520" width="40" height="40" as="geometry" />
        </mxCell>
        <mxCell id="MjjTUTkJ0xS1mPN5Bs5z-112" value="4" style="rounded=0;whiteSpace=wrap;html=1;fillColor=#cce5ff;strokeColor=#36393d;" parent="1" vertex="1">
          <mxGeometry x="440" y="520" width="40" height="40" as="geometry" />
        </mxCell>
        <mxCell id="MjjTUTkJ0xS1mPN5Bs5z-113" value="2" style="rounded=0;whiteSpace=wrap;html=1;fillColor=#cce5ff;strokeColor=#36393d;" parent="1" vertex="1">
          <mxGeometry x="480" y="520" width="40" height="40" as="geometry" />
        </mxCell>
        <mxCell id="MjjTUTkJ0xS1mPN5Bs5z-114" value="" style="rounded=0;whiteSpace=wrap;html=1;" parent="1" vertex="1">
          <mxGeometry x="600" y="520" width="40" height="40" as="geometry" />
        </mxCell>
        <mxCell id="MjjTUTkJ0xS1mPN5Bs5z-115" value="" style="rounded=0;whiteSpace=wrap;html=1;" parent="1" vertex="1">
          <mxGeometry x="640" y="520" width="40" height="40" as="geometry" />
        </mxCell>
        <mxCell id="MjjTUTkJ0xS1mPN5Bs5z-116" value="" style="rounded=0;whiteSpace=wrap;html=1;" parent="1" vertex="1">
          <mxGeometry x="720" y="520" width="40" height="40" as="geometry" />
        </mxCell>
        <mxCell id="MjjTUTkJ0xS1mPN5Bs5z-117" value="5" style="rounded=0;whiteSpace=wrap;html=1;fillColor=#cce5ff;strokeColor=#36393d;" parent="1" vertex="1">
          <mxGeometry x="760" y="520" width="40" height="40" as="geometry" />
        </mxCell>
        <mxCell id="MjjTUTkJ0xS1mPN5Bs5z-118" value="8" style="rounded=0;whiteSpace=wrap;html=1;fillColor=#cce5ff;strokeColor=#36393d;" parent="1" vertex="1">
          <mxGeometry x="880" y="520" width="40" height="40" as="geometry" />
        </mxCell>
        <mxCell id="MjjTUTkJ0xS1mPN5Bs5z-119" value="1" style="rounded=0;whiteSpace=wrap;html=1;fillColor=#cce5ff;strokeColor=#36393d;" parent="1" vertex="1">
          <mxGeometry x="920" y="520" width="40" height="40" as="geometry" />
        </mxCell>
        <mxCell id="MjjTUTkJ0xS1mPN5Bs5z-120" value="" style="rounded=0;whiteSpace=wrap;html=1;" parent="1" vertex="1">
          <mxGeometry x="1000" y="520" width="40" height="40" as="geometry" />
        </mxCell>
        <mxCell id="MjjTUTkJ0xS1mPN5Bs5z-121" value="" style="rounded=0;whiteSpace=wrap;html=1;" parent="1" vertex="1">
          <mxGeometry x="1040" y="520" width="40" height="40" as="geometry" />
        </mxCell>
        <mxCell id="MjjTUTkJ0xS1mPN5Bs5z-150" style="edgeStyle=orthogonalEdgeStyle;rounded=0;orthogonalLoop=1;jettySize=auto;html=1;exitX=0;exitY=1;exitDx=0;exitDy=0;entryX=0;entryY=0;entryDx=0;entryDy=0;" parent="1" target="MjjTUTkJ0xS1mPN5Bs5z-156" edge="1">
          <mxGeometry relative="1" as="geometry">
            <mxPoint x="80" y="560" as="sourcePoint" />
          </mxGeometry>
        </mxCell>
        <mxCell id="MjjTUTkJ0xS1mPN5Bs5z-151" style="edgeStyle=orthogonalEdgeStyle;rounded=0;orthogonalLoop=1;jettySize=auto;html=1;exitX=0;exitY=1;exitDx=0;exitDy=0;entryX=0;entryY=0;entryDx=0;entryDy=0;" parent="1" target="MjjTUTkJ0xS1mPN5Bs5z-159" edge="1">
          <mxGeometry relative="1" as="geometry">
            <mxPoint x="200" y="560" as="sourcePoint" />
          </mxGeometry>
        </mxCell>
        <mxCell id="MjjTUTkJ0xS1mPN5Bs5z-152" style="edgeStyle=orthogonalEdgeStyle;rounded=0;orthogonalLoop=1;jettySize=auto;html=1;exitX=1;exitY=1;exitDx=0;exitDy=0;entryX=0;entryY=0;entryDx=0;entryDy=0;" parent="1" target="MjjTUTkJ0xS1mPN5Bs5z-161" edge="1">
          <mxGeometry relative="1" as="geometry">
            <mxPoint x="360" y="560" as="sourcePoint" />
          </mxGeometry>
        </mxCell>
        <mxCell id="MjjTUTkJ0xS1mPN5Bs5z-153" style="edgeStyle=orthogonalEdgeStyle;rounded=0;orthogonalLoop=1;jettySize=auto;html=1;exitX=0;exitY=1;exitDx=0;exitDy=0;entryX=0;entryY=0;entryDx=0;entryDy=0;" parent="1" target="MjjTUTkJ0xS1mPN5Bs5z-163" edge="1">
          <mxGeometry relative="1" as="geometry">
            <mxPoint x="480" y="560" as="sourcePoint" />
          </mxGeometry>
        </mxCell>
        <mxCell id="MjjTUTkJ0xS1mPN5Bs5z-154" value="" style="rounded=0;whiteSpace=wrap;html=1;" parent="1" vertex="1">
          <mxGeometry x="40" y="600" width="40" height="40" as="geometry" />
        </mxCell>
        <mxCell id="MjjTUTkJ0xS1mPN5Bs5z-155" style="edgeStyle=orthogonalEdgeStyle;rounded=0;orthogonalLoop=1;jettySize=auto;html=1;exitX=0;exitY=1;exitDx=0;exitDy=0;entryX=0;entryY=0.5;entryDx=0;entryDy=0;" parent="1" source="MjjTUTkJ0xS1mPN5Bs5z-156" target="MjjTUTkJ0xS1mPN5Bs5z-160" edge="1">
          <mxGeometry relative="1" as="geometry" />
        </mxCell>
        <mxCell id="MjjTUTkJ0xS1mPN5Bs5z-156" value="" style="rounded=0;whiteSpace=wrap;html=1;" parent="1" vertex="1">
          <mxGeometry x="80" y="600" width="40" height="40" as="geometry" />
        </mxCell>
        <mxCell id="MjjTUTkJ0xS1mPN5Bs5z-157" value="" style="rounded=0;whiteSpace=wrap;html=1;" parent="1" vertex="1">
          <mxGeometry x="160" y="600" width="40" height="40" as="geometry" />
        </mxCell>
        <mxCell id="MjjTUTkJ0xS1mPN5Bs5z-158" style="edgeStyle=orthogonalEdgeStyle;rounded=0;orthogonalLoop=1;jettySize=auto;html=1;" parent="1" source="MjjTUTkJ0xS1mPN5Bs5z-159" edge="1">
          <mxGeometry relative="1" as="geometry">
            <mxPoint x="480" y="620" as="targetPoint" />
          </mxGeometry>
        </mxCell>
        <mxCell id="MjjTUTkJ0xS1mPN5Bs5z-159" value="" style="rounded=0;whiteSpace=wrap;html=1;" parent="1" vertex="1">
          <mxGeometry x="200" y="600" width="40" height="40" as="geometry" />
        </mxCell>
        <mxCell id="MjjTUTkJ0xS1mPN5Bs5z-160" value="" style="rounded=0;whiteSpace=wrap;html=1;" parent="1" vertex="1">
          <mxGeometry x="320" y="680" width="40" height="40" as="geometry" />
        </mxCell>
        <mxCell id="MjjTUTkJ0xS1mPN5Bs5z-161" value="" style="rounded=0;whiteSpace=wrap;html=1;" parent="1" vertex="1">
          <mxGeometry x="360" y="680" width="40" height="40" as="geometry" />
        </mxCell>
        <mxCell id="MjjTUTkJ0xS1mPN5Bs5z-162" value="4" style="rounded=0;whiteSpace=wrap;html=1;fillColor=#cce5ff;strokeColor=#36393d;" parent="1" vertex="1">
          <mxGeometry x="440" y="680" width="40" height="40" as="geometry" />
        </mxCell>
        <mxCell id="MjjTUTkJ0xS1mPN5Bs5z-163" value="2" style="rounded=0;whiteSpace=wrap;html=1;fillColor=#cce5ff;strokeColor=#36393d;" parent="1" vertex="1">
          <mxGeometry x="480" y="680" width="40" height="40" as="geometry" />
        </mxCell>
        <mxCell id="MjjTUTkJ0xS1mPN5Bs5z-164" style="edgeStyle=orthogonalEdgeStyle;rounded=0;orthogonalLoop=1;jettySize=auto;html=1;exitX=0;exitY=1;exitDx=0;exitDy=0;entryX=0;entryY=0;entryDx=0;entryDy=0;" parent="1" target="MjjTUTkJ0xS1mPN5Bs5z-170" edge="1">
          <mxGeometry relative="1" as="geometry">
            <mxPoint x="640" y="560" as="sourcePoint" />
          </mxGeometry>
        </mxCell>
        <mxCell id="MjjTUTkJ0xS1mPN5Bs5z-165" style="edgeStyle=orthogonalEdgeStyle;rounded=0;orthogonalLoop=1;jettySize=auto;html=1;exitX=0;exitY=1;exitDx=0;exitDy=0;entryX=0;entryY=0;entryDx=0;entryDy=0;" parent="1" target="MjjTUTkJ0xS1mPN5Bs5z-173" edge="1">
          <mxGeometry relative="1" as="geometry">
            <mxPoint x="760" y="560" as="sourcePoint" />
          </mxGeometry>
        </mxCell>
        <mxCell id="MjjTUTkJ0xS1mPN5Bs5z-166" style="edgeStyle=orthogonalEdgeStyle;rounded=0;orthogonalLoop=1;jettySize=auto;html=1;exitX=1;exitY=1;exitDx=0;exitDy=0;entryX=0;entryY=0;entryDx=0;entryDy=0;" parent="1" target="MjjTUTkJ0xS1mPN5Bs5z-175" edge="1">
          <mxGeometry relative="1" as="geometry">
            <mxPoint x="920" y="560" as="sourcePoint" />
          </mxGeometry>
        </mxCell>
        <mxCell id="MjjTUTkJ0xS1mPN5Bs5z-167" style="edgeStyle=orthogonalEdgeStyle;rounded=0;orthogonalLoop=1;jettySize=auto;html=1;exitX=0;exitY=1;exitDx=0;exitDy=0;entryX=0;entryY=0;entryDx=0;entryDy=0;" parent="1" target="MjjTUTkJ0xS1mPN5Bs5z-177" edge="1">
          <mxGeometry relative="1" as="geometry">
            <mxPoint x="1040" y="560" as="sourcePoint" />
          </mxGeometry>
        </mxCell>
        <mxCell id="MjjTUTkJ0xS1mPN5Bs5z-168" value="1" style="rounded=0;whiteSpace=wrap;html=1;fillColor=#cce5ff;strokeColor=#36393d;" parent="1" vertex="1">
          <mxGeometry x="600" y="600" width="40" height="40" as="geometry" />
        </mxCell>
        <mxCell id="MjjTUTkJ0xS1mPN5Bs5z-169" style="edgeStyle=orthogonalEdgeStyle;rounded=0;orthogonalLoop=1;jettySize=auto;html=1;exitX=0;exitY=1;exitDx=0;exitDy=0;entryX=0;entryY=0.5;entryDx=0;entryDy=0;" parent="1" source="MjjTUTkJ0xS1mPN5Bs5z-170" target="MjjTUTkJ0xS1mPN5Bs5z-174" edge="1">
          <mxGeometry relative="1" as="geometry" />
        </mxCell>
        <mxCell id="MjjTUTkJ0xS1mPN5Bs5z-170" value="5" style="rounded=0;whiteSpace=wrap;html=1;fillColor=#cce5ff;strokeColor=#36393d;" parent="1" vertex="1">
          <mxGeometry x="640" y="600" width="40" height="40" as="geometry" />
        </mxCell>
        <mxCell id="MjjTUTkJ0xS1mPN5Bs5z-171" value="" style="rounded=0;whiteSpace=wrap;html=1;fillColor=#cce5ff;strokeColor=#36393d;" parent="1" vertex="1">
          <mxGeometry x="720" y="600" width="40" height="40" as="geometry" />
        </mxCell>
        <mxCell id="MjjTUTkJ0xS1mPN5Bs5z-172" style="edgeStyle=orthogonalEdgeStyle;rounded=0;orthogonalLoop=1;jettySize=auto;html=1;" parent="1" source="MjjTUTkJ0xS1mPN5Bs5z-173" edge="1">
          <mxGeometry relative="1" as="geometry">
            <mxPoint x="1040" y="620" as="targetPoint" />
          </mxGeometry>
        </mxCell>
        <mxCell id="MjjTUTkJ0xS1mPN5Bs5z-173" value="" style="rounded=0;whiteSpace=wrap;html=1;fillColor=#cce5ff;strokeColor=#36393d;" parent="1" vertex="1">
          <mxGeometry x="760" y="600" width="40" height="40" as="geometry" />
        </mxCell>
        <mxCell id="MjjTUTkJ0xS1mPN5Bs5z-174" value="9" style="rounded=0;whiteSpace=wrap;html=1;fillColor=#cce5ff;strokeColor=#36393d;" parent="1" vertex="1">
          <mxGeometry x="880" y="680" width="40" height="40" as="geometry" />
        </mxCell>
        <mxCell id="MjjTUTkJ0xS1mPN5Bs5z-175" value="4" style="rounded=0;whiteSpace=wrap;html=1;fillColor=#cce5ff;strokeColor=#36393d;" parent="1" vertex="1">
          <mxGeometry x="920" y="680" width="40" height="40" as="geometry" />
        </mxCell>
        <mxCell id="MjjTUTkJ0xS1mPN5Bs5z-176" value="" style="rounded=0;whiteSpace=wrap;html=1;fillColor=#cce5ff;strokeColor=#36393d;" parent="1" vertex="1">
          <mxGeometry x="1000" y="680" width="40" height="40" as="geometry" />
        </mxCell>
        <mxCell id="MjjTUTkJ0xS1mPN5Bs5z-177" value="" style="rounded=0;whiteSpace=wrap;html=1;fillColor=#cce5ff;strokeColor=#36393d;" parent="1" vertex="1">
          <mxGeometry x="1040" y="680" width="40" height="40" as="geometry" />
        </mxCell>
        <mxCell id="MjjTUTkJ0xS1mPN5Bs5z-178" value="" style="rounded=0;whiteSpace=wrap;html=1;" parent="1" vertex="1">
          <mxGeometry x="40" y="760" width="40" height="40" as="geometry" />
        </mxCell>
        <mxCell id="MjjTUTkJ0xS1mPN5Bs5z-179" value="" style="rounded=0;whiteSpace=wrap;html=1;" parent="1" vertex="1">
          <mxGeometry x="80" y="760" width="40" height="40" as="geometry" />
        </mxCell>
        <mxCell id="MjjTUTkJ0xS1mPN5Bs5z-180" value="" style="rounded=0;whiteSpace=wrap;html=1;fillColor=#cce5ff;strokeColor=#36393d;" parent="1" vertex="1">
          <mxGeometry x="160" y="760" width="40" height="40" as="geometry" />
        </mxCell>
        <mxCell id="MjjTUTkJ0xS1mPN5Bs5z-181" value="" style="rounded=0;whiteSpace=wrap;html=1;fillColor=#cce5ff;strokeColor=#36393d;" parent="1" vertex="1">
          <mxGeometry x="200" y="760" width="40" height="40" as="geometry" />
        </mxCell>
        <mxCell id="MjjTUTkJ0xS1mPN5Bs5z-182" value="" style="rounded=0;whiteSpace=wrap;html=1;" parent="1" vertex="1">
          <mxGeometry x="320" y="760" width="40" height="40" as="geometry" />
        </mxCell>
        <mxCell id="MjjTUTkJ0xS1mPN5Bs5z-183" value="" style="rounded=0;whiteSpace=wrap;html=1;" parent="1" vertex="1">
          <mxGeometry x="360" y="760" width="40" height="40" as="geometry" />
        </mxCell>
        <mxCell id="MjjTUTkJ0xS1mPN5Bs5z-184" value="" style="rounded=0;whiteSpace=wrap;html=1;" parent="1" vertex="1">
          <mxGeometry x="440" y="760" width="40" height="40" as="geometry" />
        </mxCell>
        <mxCell id="MjjTUTkJ0xS1mPN5Bs5z-185" value="" style="rounded=0;whiteSpace=wrap;html=1;" parent="1" vertex="1">
          <mxGeometry x="480" y="760" width="40" height="40" as="geometry" />
        </mxCell>
        <mxCell id="MjjTUTkJ0xS1mPN5Bs5z-186" value="9" style="rounded=0;whiteSpace=wrap;html=1;fillColor=#cce5ff;strokeColor=#36393d;" parent="1" vertex="1">
          <mxGeometry x="600" y="760" width="40" height="40" as="geometry" />
        </mxCell>
        <mxCell id="MjjTUTkJ0xS1mPN5Bs5z-187" value="4" style="rounded=0;whiteSpace=wrap;html=1;fillColor=#cce5ff;strokeColor=#36393d;" parent="1" vertex="1">
          <mxGeometry x="640" y="760" width="40" height="40" as="geometry" />
        </mxCell>
        <mxCell id="MjjTUTkJ0xS1mPN5Bs5z-188" value="4" style="rounded=0;whiteSpace=wrap;html=1;fillColor=#cce5ff;strokeColor=#36393d;" parent="1" vertex="1">
          <mxGeometry x="720" y="760" width="40" height="40" as="geometry" />
        </mxCell>
        <mxCell id="MjjTUTkJ0xS1mPN5Bs5z-189" value="2" style="rounded=0;whiteSpace=wrap;html=1;fillColor=#cce5ff;strokeColor=#36393d;" parent="1" vertex="1">
          <mxGeometry x="760" y="760" width="40" height="40" as="geometry" />
        </mxCell>
        <mxCell id="MjjTUTkJ0xS1mPN5Bs5z-190" value="" style="rounded=0;whiteSpace=wrap;html=1;" parent="1" vertex="1">
          <mxGeometry x="880" y="760" width="40" height="40" as="geometry" />
        </mxCell>
        <mxCell id="MjjTUTkJ0xS1mPN5Bs5z-191" value="" style="rounded=0;whiteSpace=wrap;html=1;" parent="1" vertex="1">
          <mxGeometry x="920" y="760" width="40" height="40" as="geometry" />
        </mxCell>
        <mxCell id="MjjTUTkJ0xS1mPN5Bs5z-192" value="" style="rounded=0;whiteSpace=wrap;html=1;" parent="1" vertex="1">
          <mxGeometry x="1000" y="760" width="40" height="40" as="geometry" />
        </mxCell>
        <mxCell id="MjjTUTkJ0xS1mPN5Bs5z-193" value="5" style="rounded=0;whiteSpace=wrap;html=1;fillColor=#cce5ff;strokeColor=#36393d;" parent="1" vertex="1">
          <mxGeometry x="1040" y="760" width="40" height="40" as="geometry" />
        </mxCell>
      </root>
    </mxGraphModel>
  </diagram>
</mxfile>
